<svg width="32" height="32" viewBox="0 0 32 32" fill="none" xmlns="http://www.w3.org/2000/svg">
<path d="M12.2637 6.50195H20.1035L20.832 3.03711H29.6836V28.2129H25.0615V6.50195H24.3613L20.1592 28.2129H12.3145L7.97266 6.50195H7.27246V28.2129H2.64941V3H11.4746L12.2637 6.50195ZM15.957 22.8906H16.6572L19.2197 10.7041H13.2109L15.957 22.8906Z" fill="#7C3AED"/>
<path d="M12.2637 6.50195H20.1035L20.832 3.03711H29.6836V28.2129H25.0615V6.50195H24.3613L20.1592 28.2129H12.3145L7.97266 6.50195H7.27246V28.2129H2.64941V3H11.4746L12.2637 6.50195ZM15.957 22.8906H16.6572L19.2197 10.7041H13.2109L15.957 22.8906Z" fill="url(#paint0_linear_59_2)" fill-opacity="0.3"/>
<defs>
<linearGradient id="paint0_linear_59_2" x1="16.1665" y1="3" x2="16.1665" y2="28.2129" gradientUnits="userSpaceOnUse">
<stop stop-color="white" stop-opacity="0"/>
<stop offset="1"/>
</linearGradient>
</defs>
</svg>
